<svg width="506" height="163" viewBox="0 0 506 163" fill="none" xmlns="http://www.w3.org/2000/svg">
<path d="M2 86C9.56455 61.7935 31.8195 57.8721 53.5556 58C73.0716 58.1148 89.7444 57.2553 106.444 67.1111C126.666 79.0449 146.231 91.983 166.889 103.333C185.688 113.662 203.009 126.535 221.778 136.444C236.121 144.018 250.99 156.776 266.889 160.444C289.234 165.601 318.132 140.428 337.111 131.333C347.109 126.543 363.445 122.798 367.556 110.889C370.282 102.99 371.6 93.376 373.111 85.1111C376.696 65.4977 370.4 40.9618 386 24.8889C392.779 17.9045 399.48 18.0595 409.111 18C425.406 17.8994 441.704 18 458 18C465.259 18 472.519 18 479.778 18C493.187 18 495.867 11.7598 504 2" stroke="#806F27" stroke-width="3" stroke-linecap="round"/>
</svg>
