<svg width="16" height="15" viewBox="0 0 16 15" fill="none" xmlns="http://www.w3.org/2000/svg">
<path d="M8.00315 4.40586C6.01565 4.40586 4.41252 6.00898 4.41252 7.99648C4.41252 9.98398 6.01565 11.5871 8.00315 11.5871C9.99065 11.5871 11.5938 9.98398 11.5938 7.99648C11.5938 6.00898 9.99065 4.40586 8.00315 4.40586ZM8.00315 10.3309C6.71877 10.3309 5.66877 9.28398 5.66877 7.99648C5.66877 6.70898 6.71565 5.66211 8.00315 5.66211C9.29065 5.66211 10.3375 6.70898 10.3375 7.99648C10.3375 9.28398 9.28752 10.3309 8.00315 10.3309ZM12.5781 4.25898C12.5781 4.72461 12.2031 5.09648 11.7407 5.09648C11.275 5.09648 10.9031 4.72148 10.9031 4.25898C10.9031 3.79648 11.2782 3.42148 11.7407 3.42148C12.2031 3.42148 12.5781 3.79648 12.5781 4.25898ZM14.9563 5.10898C14.9031 3.98711 14.6469 2.99336 13.825 2.17461C13.0063 1.35586 12.0125 1.09961 10.8906 1.04336C9.7344 0.977734 6.26877 0.977734 5.11252 1.04336C3.99377 1.09648 3.00002 1.35273 2.17815 2.17148C1.35627 2.99023 1.10315 3.98398 1.0469 5.10586C0.981274 6.26211 0.981274 9.72773 1.0469 10.884C1.10002 12.0059 1.35627 12.9996 2.17815 13.8184C3.00002 14.6371 3.99065 14.8934 5.11252 14.9496C6.26877 15.0152 9.7344 15.0152 10.8906 14.9496C12.0125 14.8965 13.0063 14.6402 13.825 13.8184C14.6438 12.9996 14.9 12.0059 14.9563 10.884C15.0219 9.72773 15.0219 6.26523 14.9563 5.10898ZM13.4625 12.1246C13.2188 12.7371 12.7469 13.209 12.1313 13.4559C11.2094 13.8215 9.0219 13.7371 8.00315 13.7371C6.9844 13.7371 4.79377 13.8184 3.87502 13.4559C3.26252 13.2121 2.79065 12.7402 2.54377 12.1246C2.17815 11.2027 2.26252 9.01523 2.26252 7.99648C2.26252 6.97773 2.18127 4.78711 2.54377 3.86836C2.78752 3.25586 3.2594 2.78398 3.87502 2.53711C4.7969 2.17148 6.9844 2.25586 8.00315 2.25586C9.0219 2.25586 11.2125 2.17461 12.1313 2.53711C12.7438 2.78086 13.2156 3.25273 13.4625 3.86836C13.8281 4.79023 13.7438 6.97773 13.7438 7.99648C13.7438 9.01523 13.8281 11.2059 13.4625 12.1246Z" fill="#806F27"/>
</svg>
