<svg width="12" height="12" viewBox="0 0 12 12" fill="none" xmlns="http://www.w3.org/2000/svg">
<path d="M2.36003 1.33333C2.40003 1.92667 2.50003 2.50667 2.66003 3.06L1.86003 3.86C1.5867 3.06 1.41336 2.21333 1.35336 1.33333H2.36003ZM8.93336 9.34667C9.50003 9.50667 10.08 9.60667 10.6667 9.64667V10.64C9.7867 10.58 8.94003 10.4067 8.13336 10.14L8.93336 9.34667ZM3.00003 0H0.666697C0.300031 0 3.05176e-05 0.3 3.05176e-05 0.666667C3.05176e-05 6.92667 5.07336 12 11.3334 12C11.7 12 12 11.7 12 11.3333V9.00667C12 8.64 11.7 8.34 11.3334 8.34C10.5067 8.34 9.70003 8.20667 8.95336 7.96C8.8867 7.93333 8.81336 7.92667 8.7467 7.92667C8.57336 7.92667 8.4067 7.99333 8.27336 8.12L6.8067 9.58667C4.92003 8.62 3.37336 7.08 2.41336 5.19333L3.88003 3.72667C4.0667 3.54 4.12003 3.28 4.0467 3.04667C3.80003 2.3 3.6667 1.5 3.6667 0.666667C3.6667 0.3 3.3667 0 3.00003 0Z" fill="#806F27"/>
</svg>
